<?xml version="1.0" encoding="UTF-8" standalone="no"?>
<!DOCTYPE svg PUBLIC "-//W3C//DTD SVG 1.1//EN" "http://www.w3.org/Graphics/SVG/1.1/DTD/svg11.dtd">
<svg xmlns="http://www.w3.org/2000/svg" version="1.1" viewBox="0.00 0.00 500.00 500.00">
<path fill="#ff914e" d="
  M 154.78 138.91
  Q 156.22 136.69 158.21 134.95
  C 161.35 132.21 164.26 129.37 167.22 126.46
  Q 169.77 123.96 175.97 120.17
  A 1.51 1.46 -8.3 0 0 176.61 119.34
  C 177.08 117.73 178.49 117.78 179.73 117.07
  Q 187.55 112.59 195.91 108.08
  C 198.37 106.75 201.00 105.69 203.75 104.92
  Q 209.94 103.17 215.14 101.28
  Q 222.09 98.76 226.45 97.71
  Q 239.26 94.64 253.39 95.22
  Q 258.74 95.44 263.88 95.86
  Q 277.19 96.94 290.80 100.15
  Q 298.40 101.94 303.92 104.92
  Q 304.67 105.33 305.44 105.75
  Q 310.42 108.44 315.24 109.99
  Q 318.86 111.15 321.31 112.72
  Q 325.92 115.67 331.38 118.98
  Q 332.35 119.56 333.38 120.53
  Q 333.50 120.64 333.41 120.79
  L 333.23 121.06
  Q 333.07 121.30 332.85 121.11
  Q 332.11 120.46 331.08 120.41
  Q 329.16 120.32 328.70 118.84
  Q 328.56 118.37 328.16 118.06
  Q 327.23 117.35 326.18 117.22
  C 325.07 117.08 324.06 116.49 323.20 115.78
  Q 319.40 112.67 314.34 110.62
  C 312.82 110.01 311.49 110.58 310.15 109.97
  Q 304.43 107.38 298.90 105.11
  A 0.43 0.43 0.0 0 1 298.74 104.43
  Q 298.87 104.27 298.84 104.09
  Q 298.79 103.74 298.47 103.60
  C 294.23 101.68 288.96 101.30 284.52 100.32
  C 282.21 99.82 280.75 98.63 278.16 99.02
  Q 277.89 99.06 277.90 99.34
  Q 277.92 99.54 278.10 99.61
  Q 278.62 99.79 278.07 99.77
  Q 275.26 99.67 272.58 99.70
  Q 271.17 99.71 272.54 99.36
  Q 274.26 98.91 276.05 99.31
  Q 276.11 99.33 276.13 99.26
  L 276.18 99.02
  Q 276.23 98.81 276.02 98.75
  Q 273.08 97.92 270.12 98.60
  Q 268.60 98.95 267.12 98.71
  Q 260.75 97.69 252.71 97.79
  Q 250.50 97.82 248.26 97.54
  Q 246.13 97.27 243.65 98.10
  Q 241.51 98.81 239.23 99.16
  Q 234.62 99.84 229.58 101.12
  Q 229.11 101.24 228.65 100.95
  Q 228.52 100.88 228.59 100.67
  Q 228.66 100.47 228.86 100.40
  Q 229.32 100.25 229.65 99.91
  Q 230.23 99.31 229.40 99.39
  Q 227.20 99.60 225.15 100.28
  Q 224.77 100.41 224.38 100.30
  Q 222.31 99.69 220.31 100.81
  Q 219.61 101.19 220.20 101.73
  L 221.56 102.96
  Q 222.08 103.42 221.39 103.53
  C 219.38 103.87 217.24 103.76 215.35 104.48
  Q 211.05 106.11 206.48 107.40
  Q 206.00 107.53 205.55 107.33
  Q 204.78 106.98 203.98 107.39
  Q 200.90 109.01 198.31 110.58
  Q 198.12 110.70 198.26 110.92
  A 0.25 0.24 60.1 0 0 198.56 111.01
  L 199.38 110.63
  Q 200.38 110.16 199.63 110.98
  Q 199.17 111.49 198.55 111.80
  Q 194.75 113.75 190.52 115.22
  Q 190.46 115.24 190.43 115.19
  L 190.29 114.92
  Q 190.16 114.69 190.37 114.53
  L 197.69 109.01
  Q 197.79 108.93 197.72 108.81
  L 197.48 108.47
  Q 197.44 108.42 197.38 108.45
  Q 191.21 111.64 186.35 117.08
  A 1.72 1.72 0.0 0 1 184.40 117.51
  Q 183.51 117.13 182.78 117.70
  C 179.10 120.56 175.98 123.91 172.18 126.72
  C 170.13 128.24 168.10 128.16 166.73 130.72
  Q 166.48 131.19 165.95 131.23
  L 165.07 131.31
  A 1.04 1.04 0.0 0 0 164.23 131.88
  Q 163.88 132.59 163.48 133.30
  C 162.67 134.73 160.14 136.21 158.75 137.14
  Q 158.35 137.42 158.40 137.90
  Q 158.56 139.34 157.16 140.40
  Q 156.64 140.78 156.36 140.21
  Q 155.76 138.95 154.78 138.91
  Z"
/>
<path fill="#ff914e" d="
  M 294.18 103.64
  C 293.55 103.30 292.76 103.13 292.12 102.83
  Q 291.71 102.63 292.16 102.57
  Q 292.65 102.51 292.91 102.90
  A 0.43 0.42 79.5 0 0 293.15 103.07
  L 296.62 104.04
  Q 296.85 104.10 296.62 104.12
  Q 295.31 104.24 294.18 103.64
  Z"
/>
<ellipse fill="#ff914e" cx="0.00" cy="0.00" transform="translate(181.48,120.44) rotate(-32.0)" rx="1.54" ry="0.41"/>
<path fill="#ff914e" d="
  M 341.40 126.70
  Q 341.63 126.51 341.94 126.75
  A 0.43 0.42 19.1 0 1 342.11 127.09
  Q 342.13 127.82 342.75 128.08
  Q 344.95 129.01 346.40 130.88
  Q 346.46 130.96 346.39 131.04
  L 346.38 131.04
  Q 346.24 131.17 346.10 131.03
  Q 345.54 130.48 344.80 130.28
  Q 344.19 130.13 343.86 130.66
  Q 343.57 131.11 342.92 130.92
  A 0.85 0.79 -10.4 0 1 342.51 130.66
  Q 341.43 129.39 340.06 128.40
  Q 337.31 126.40 334.51 124.30
  Q 334.32 124.16 334.46 123.96
  L 334.64 123.71
  Q 334.67 123.67 334.72 123.70
  Q 337.68 125.40 340.50 126.81
  Q 340.99 127.05 341.40 126.70
  Z"
/>
<path fill="#ff914e" d="
  M 154.78 138.91
  L 153.72 141.20
  Q 153.58 141.50 153.55 141.83
  Q 153.49 142.38 153.84 142.46
  Q 154.60 142.64 154.11 143.25
  Q 153.31 144.23 152.27 144.31
  Q 151.86 144.35 151.71 144.73
  C 150.92 146.66 149.07 148.03 148.09 149.42
  Q 142.58 157.19 137.07 165.44
  Q 135.64 167.58 134.55 170.04
  C 133.25 172.98 131.57 175.64 130.53 178.75
  Q 129.89 180.64 128.67 182.63
  C 126.72 185.82 125.53 190.72 124.72 194.54
  Q 123.48 200.37 121.58 205.88
  Q 120.38 209.35 120.10 212.80
  Q 119.78 216.74 119.69 220.74
  C 119.60 225.06 119.14 229.41 118.81 233.75
  Q 118.63 236.20 119.06 239.70
  Q 119.35 242.07 119.63 245.62
  Q 120.27 253.65 124.69 270.91
  C 125.92 275.72 128.15 280.17 129.48 285.00
  Q 130.72 289.49 133.06 293.67
  Q 135.55 298.10 138.11 303.05
  C 139.00 304.78 140.09 306.51 141.49 307.84
  C 143.37 309.64 144.14 311.83 145.92 313.68
  Q 150.07 317.96 152.42 321.92
  Q 153.65 323.99 155.18 325.31
  C 156.54 326.49 157.95 327.34 158.82 328.98
  C 160.13 331.47 162.33 331.76 164.20 333.56
  Q 173.89 342.93 185.39 349.09
  C 189.29 351.19 192.91 353.63 196.73 355.89
  C 199.18 357.34 201.80 358.10 204.50 358.88
  Q 205.86 359.28 207.08 360.29
  Q 208.75 361.66 210.95 361.98
  Q 216.75 362.82 221.60 365.09
  C 223.49 365.98 225.44 365.41 227.36 366.07
  Q 230.71 367.22 234.46 367.11
  Q 237.00 367.04 239.40 367.51
  C 241.76 367.97 243.92 367.64 246.23 368.22
  Q 249.21 368.97 252.32 369.03
  A 1.87 1.85 -56.7 0 0 253.16 368.85
  Q 254.45 368.21 255.87 368.34
  Q 260.05 368.73 264.09 368.34
  C 267.12 368.05 270.33 369.07 273.24 368.19
  Q 283.69 365.06 295.25 363.21
  Q 298.03 362.77 303.16 359.53
  Q 304.09 358.95 303.00 358.98
  L 300.16 359.04
  Q 299.60 359.05 299.19 358.69
  Q 298.74 358.30 298.49 357.75
  A 1.27 1.27 0.0 0 0 297.62 357.07
  L 294.96 356.53
  Q 294.38 356.41 294.40 355.82
  Q 294.49 353.12 295.48 350.71
  C 296.92 347.23 297.79 343.58 298.99 340.05
  Q 299.20 339.41 298.53 339.36
  Q 275.32 337.61 251.84 337.99
  Q 251.21 338.00 251.36 338.62
  L 251.68 339.92
  Q 251.81 340.47 251.63 341.01
  C 250.02 345.59 251.21 350.27 252.75 354.88
  C 253.24 356.34 254.10 356.88 255.60 356.75
  Q 256.30 356.70 256.45 357.38
  L 256.62 358.14
  A 0.71 0.70 -8.2 0 1 255.97 359.00
  Q 252.68 359.20 249.61 358.61
  A 0.71 0.71 0.0 0 1 249.03 357.89
  Q 249.22 351.28 248.46 344.54
  Q 248.11 341.37 246.42 338.59
  Q 246.16 338.17 245.66 338.18
  L 239.27 338.38
  Q 238.71 338.40 238.49 338.91
  C 236.32 344.05 234.16 348.83 235.23 354.48
  Q 235.54 356.12 237.28 356.01
  A 1.26 1.25 -1.3 0 1 238.61 357.28
  L 238.61 357.55
  A 0.42 0.41 -87.4 0 1 238.17 357.96
  L 231.47 357.47
  A 0.54 0.54 0.0 0 1 231.11 356.57
  Q 232.07 355.51 231.68 354.11
  Q 231.52 353.53 231.70 352.97
  Q 233.85 346.36 234.28 339.22
  Q 234.32 338.59 233.69 338.64
  L 220.59 339.52
  A 1.44 1.43 -1.7 0 0 219.25 340.94
  Q 219.21 343.94 219.21 346.88
  C 219.21 348.72 220.06 350.04 219.92 351.88
  Q 219.87 352.52 219.25 352.36
  Q 218.80 352.24 218.42 351.95
  Q 217.77 351.46 217.45 352.22
  L 216.98 353.35
  A 0.85 0.84 14.1 0 1 216.12 353.86
  L 211.38 353.40
  Q 210.68 353.33 210.96 353.98
  Q 211.66 355.57 213.70 355.81
  Q 215.00 355.95 213.81 356.48
  Q 211.61 357.46 209.16 356.45
  Q 208.56 356.21 208.48 355.57
  Q 207.72 349.55 206.48 343.77
  Q 206.22 342.56 205.57 341.51
  A 1.10 1.09 -56.4 0 0 203.56 341.92
  L 202.68 347.34
  Q 202.60 347.89 202.87 348.38
  L 204.98 352.03
  A 0.48 0.48 0.0 0 1 204.55 352.75
  Q 203.98 352.74 203.48 352.54
  A 0.54 0.54 0.0 0 0 202.75 353.02
  L 202.69 354.77
  Q 202.67 355.33 202.12 355.44
  Q 199.99 355.84 198.72 354.66
  Q 198.09 354.06 198.38 353.25
  Q 198.49 352.94 198.72 352.72
  Q 200.12 351.32 198.14 351.40
  Q 196.74 351.45 195.24 351.47
  Q 194.49 351.48 194.52 350.73
  L 194.80 343.26
  Q 194.83 342.60 194.17 342.68
  Q 187.99 343.45 181.76 344.82
  Q 181.70 344.83 181.68 344.77
  L 181.59 344.47
  Q 181.51 344.23 181.76 344.14
  L 194.02 339.82
  A 0.63 0.63 0.0 0 0 194.43 339.12
  L 193.55 333.68
  Q 193.45 333.06 193.79 332.53
  C 195.24 330.29 196.40 328.06 195.95 325.27
  Q 195.85 324.65 195.32 324.98
  L 194.69 325.38
  A 0.94 0.93 34.5 0 1 194.02 325.50
  Q 192.88 325.25 193.14 324.15
  Q 193.48 322.64 194.50 321.43
  Q 194.87 320.98 194.57 320.49
  C 193.49 318.72 194.50 317.17 194.01 315.30
  Q 193.79 314.46 193.52 313.62
  Q 193.25 312.77 193.42 311.90
  Q 194.85 304.79 197.75 298.17
  Q 197.95 297.72 197.81 297.24
  L 197.10 294.89
  A 1.19 1.18 -42.5 0 1 197.14 294.10
  C 197.84 292.45 198.74 291.07 198.89 289.20
  C 199.12 286.20 199.65 282.22 202.97 281.20
  Q 205.49 280.42 204.96 278.00
  C 204.55 276.09 206.15 272.97 208.48 274.06
  C 210.71 275.11 210.32 278.27 209.01 279.81
  A 1.19 1.19 0.0 0 0 209.62 281.74
  Q 211.71 282.27 212.19 284.30
  Q 212.25 284.57 212.53 284.62
  Q 212.64 284.65 212.79 284.49
  Q 212.89 284.38 212.89 284.22
  Q 213.00 280.51 216.38 279.58
  A 0.47 0.47 0.0 0 0 216.45 278.70
  Q 214.49 277.80 214.09 275.85
  A 1.31 1.29 58.7 0 1 214.35 274.76
  L 215.85 272.87
  Q 216.24 272.38 216.82 272.60
  C 218.22 273.13 219.01 271.90 220.34 271.76
  C 223.70 271.41 224.67 275.55 223.72 278.02
  A 1.11 1.09 0.4 0 1 223.07 278.65
  Q 222.74 278.76 222.38 278.72
  Q 221.69 278.65 221.30 279.22
  Q 221.11 279.50 221.10 279.83
  Q 221.09 280.33 221.57 280.47
  C 224.29 281.28 224.05 284.53 223.24 286.62
  Q 222.39 288.81 222.78 291.55
  Q 223.11 293.91 223.90 291.66
  Q 225.74 286.42 225.94 279.82
  C 226.01 277.63 227.71 276.24 229.60 275.51
  Q 230.24 275.26 230.33 274.59
  C 230.61 272.60 230.53 269.88 232.91 269.17
  C 235.99 268.26 238.18 270.41 237.56 273.49
  C 237.24 275.07 235.90 278.28 233.70 277.32
  Q 233.28 277.13 233.00 277.50
  L 232.83 277.71
  Q 232.56 278.05 232.93 278.28
  Q 235.13 279.66 235.29 282.05
  Q 235.57 285.99 237.76 289.41
  Q 238.08 289.92 238.68 289.95
  Q 242.50 290.19 242.77 293.79
  Q 242.80 294.12 243.09 294.28
  L 247.24 296.49
  A 0.16 0.16 0.0 0 0 247.48 296.35
  Q 247.45 246.25 232.30 200.03
  Q 232.05 199.27 231.41 199.75
  C 230.98 200.08 230.43 200.57 229.92 200.75
  Q 223.67 202.88 221.13 197.14
  Q 220.93 196.69 220.58 197.04
  Q 215.06 202.52 211.31 208.74
  Q 210.87 209.48 210.42 208.74
  L 209.09 206.52
  A 0.26 0.26 0.0 0 0 208.74 206.43
  L 208.44 206.60
  A 0.39 0.39 0.0 0 0 208.26 207.07
  L 209.52 210.76
  A 1.95 1.90 49.2 0 1 209.43 212.21
  L 207.30 216.61
  A 1.41 0.40 -72.8 0 1 207.22 216.74
  Q 206.64 217.61 205.96 217.43
  A 0.27 0.26 6.0 0 0 205.63 217.69
  C 205.64 218.53 206.02 219.14 205.83 220.00
  Q 204.79 224.82 202.72 228.55
  Q 202.48 228.98 202.52 229.48
  C 202.59 230.42 202.72 231.35 202.51 232.28
  Q 201.46 237.06 201.23 241.76
  Q 201.08 244.98 199.92 241.97
  Q 198.55 238.44 197.87 234.15
  C 195.34 218.41 200.34 202.85 210.75 190.42
  Q 212.90 187.86 210.05 189.60
  Q 205.95 192.09 202.29 195.77
  A 1.09 1.09 0.0 0 1 201.51 196.10
  Q 200.59 196.09 200.31 195.01
  Q 200.13 194.32 199.67 194.86
  C 198.98 195.66 200.10 197.68 198.86 199.13
  Q 194.55 204.13 191.22 209.54
  Q 190.69 210.41 189.73 210.77
  Q 189.22 210.97 189.13 211.51
  C 188.90 212.86 188.61 214.24 188.01 215.47
  Q 182.64 226.33 180.10 239.24
  Q 179.94 240.04 179.36 240.61
  A 0.30 0.30 0.0 0 1 178.86 240.43
  C 176.08 219.36 181.08 200.34 197.78 186.66
  Q 199.10 185.58 197.42 185.86
  Q 193.63 186.47 189.36 187.54
  A 1.49 1.47 12.2 0 0 188.57 188.04
  Q 188.30 188.38 187.91 188.57
  Q 181.94 191.55 176.83 196.17
  Q 176.35 196.59 175.72 196.53
  L 175.26 196.48
  A 0.66 0.66 0.0 0 0 174.57 196.88
  C 174.07 198.07 173.44 199.22 172.57 200.17
  Q 163.20 210.44 157.57 222.03
  Q 156.67 223.88 156.76 221.83
  Q 157.44 204.87 166.58 191.64
  C 174.74 179.83 188.71 174.03 202.93 174.56
  Q 204.67 174.62 203.05 173.98
  Q 198.68 172.26 193.68 171.27
  A 1.44 1.39 77.4 0 1 192.80 170.69
  Q 192.18 169.79 191.09 170.30
  Q 190.33 170.65 189.50 170.51
  Q 180.55 168.96 171.30 170.04
  Q 170.24 170.16 170.82 169.26
  L 171.45 168.30
  Q 172.06 167.34 171.08 167.90
  Q 169.68 168.70 168.57 170.02
  A 1.90 1.84 -75.8 0 1 167.58 170.63
  Q 162.69 171.75 158.06 173.99
  Q 156.37 174.81 157.59 173.39
  C 170.57 158.20 189.88 156.94 207.79 163.71
  Q 211.15 164.98 208.21 162.92
  Q 205.81 161.25 202.92 159.69
  Q 202.29 159.35 202.90 158.98
  Q 203.04 158.90 203.17 158.83
  Q 203.93 158.46 203.10 158.32
  Q 202.30 158.19 201.49 158.25
  Q 200.90 158.29 200.37 158.04
  L 194.02 154.95
  Q 192.96 154.43 194.02 153.91
  Q 194.22 153.80 194.42 153.70
  Q 195.26 153.23 194.30 153.31
  C 192.78 153.42 191.46 153.94 189.93 153.34
  Q 186.65 152.06 183.35 151.13
  Q 182.81 150.97 182.37 150.62
  Q 181.42 149.85 180.21 150.14
  Q 179.71 150.26 179.21 150.16
  Q 172.95 148.96 167.06 149.23
  Q 165.70 149.29 166.96 148.79
  Q 170.37 147.43 174.45 146.66
  C 191.51 143.45 205.54 148.61 217.31 160.96
  Q 218.96 162.69 218.10 160.46
  Q 216.78 157.06 215.07 153.17
  Q 214.39 151.65 208.86 145.17
  Q 208.78 145.06 208.90 145.01
  Q 209.04 144.95 209.15 144.85
  Q 209.27 144.74 209.13 144.65
  Q 205.62 142.39 202.32 140.00
  Q 200.03 138.34 202.73 139.19
  C 213.82 142.66 221.77 149.53 227.57 159.34
  Q 228.03 160.12 228.32 159.26
  C 233.52 143.97 245.54 132.82 262.49 134.34
  Q 267.40 134.78 272.72 136.39
  Q 273.88 136.74 272.68 136.90
  Q 263.75 138.12 256.31 142.39
  Q 255.73 142.72 255.07 142.57
  Q 253.81 142.28 253.49 143.56
  Q 253.33 144.19 252.78 144.56
  Q 247.54 148.04 243.43 152.79
  A 2.09 2.05 -76.3 0 1 242.40 153.43
  Q 240.60 153.92 240.38 155.88
  A 1.76 1.59 -28.0 0 1 240.10 156.65
  L 235.32 163.92
  A 0.31 0.31 0.0 0 0 235.63 164.40
  Q 236.13 164.32 236.53 164.00
  C 251.73 152.04 270.44 147.49 285.90 162.48
  Q 286.61 163.17 285.63 163.05
  Q 279.14 162.26 273.28 162.54
  Q 272.51 162.58 272.87 161.89
  L 273.86 160.01
  Q 274.04 159.66 273.65 159.69
  Q 273.45 159.70 273.30 159.83
  C 271.75 161.07 270.41 162.77 268.30 162.98
  Q 265.27 163.27 262.50 163.88
  Q 261.81 164.03 261.32 163.53
  Q 260.75 162.95 260.37 163.70
  A 1.41 1.40 -85.3 0 1 259.59 164.37
  L 249.96 167.82
  Q 249.54 167.97 249.25 167.63
  Q 249.15 167.51 249.14 167.34
  Q 249.12 166.99 248.83 167.18
  C 247.68 167.94 247.19 169.12 246.04 169.82
  Q 242.66 171.88 239.36 174.23
  Q 237.89 175.27 239.69 175.24
  C 251.22 175.04 264.06 178.15 272.35 186.36
  Q 276.84 190.80 279.60 197.24
  Q 280.17 198.57 278.98 197.76
  Q 272.71 193.49 265.83 190.69
  Q 260.64 188.58 251.19 187.10
  Q 250.43 186.99 250.89 186.37
  Q 251.10 186.08 251.32 185.77
  Q 251.86 184.99 251.00 185.39
  Q 249.99 185.87 249.16 186.52
  Q 248.75 186.85 248.21 186.81
  L 243.03 186.41
  Q 242.36 186.35 242.45 187.02
  Q 242.55 187.67 242.86 188.26
  Q 243.12 188.74 243.08 189.30
  Q 242.66 195.42 236.76 196.16
  A 0.47 0.47 0.0 0 0 236.38 196.79
  Q 241.66 211.54 245.60 227.11
  Q 256.03 268.41 260.44 309.36
  Q 260.63 311.19 261.52 309.58
  Q 262.18 308.39 262.04 307.08
  A 2.54 2.54 0.0 0 1 263.81 304.39
  Q 265.40 303.89 265.68 302.24
  A 1.97 1.97 0.0 0 1 266.49 300.94
  Q 267.74 300.04 268.63 298.70
  Q 269.09 298.01 269.89 297.79
  L 270.95 297.52
  A 0.78 0.77 87.2 0 0 271.51 296.89
  Q 275.84 270.38 285.26 246.16
  Q 285.48 245.57 284.90 245.35
  Q 281.79 244.18 282.34 240.49
  Q 282.48 239.60 281.60 239.81
  Q 280.73 240.02 279.76 239.91
  C 277.93 239.72 275.46 240.75 273.59 241.11
  C 270.69 241.67 267.99 243.27 265.46 244.79
  Q 263.73 245.83 264.69 244.04
  C 268.47 236.99 275.75 234.35 283.75 234.22
  Q 284.71 234.20 283.91 233.66
  C 282.19 232.49 280.38 230.99 278.41 230.38
  C 276.12 229.66 273.74 228.44 271.32 228.41
  Q 269.94 228.40 268.69 227.70
  Q 268.25 227.45 267.76 227.56
  Q 264.97 228.19 261.58 228.14
  Q 260.93 228.13 261.42 227.71
  Q 268.83 221.24 277.63 224.35
  Q 281.69 225.79 285.36 228.66
  Q 285.41 228.70 285.46 228.65
  L 285.66 228.44
  Q 285.93 228.15 285.65 227.86
  Q 284.48 226.60 283.80 225.02
  Q 283.32 223.92 282.39 223.19
  Q 280.41 221.64 278.66 219.98
  C 275.99 217.45 271.57 216.04 268.11 215.53
  Q 267.50 215.44 268.04 215.15
  Q 269.06 214.61 270.22 214.42
  Q 283.84 212.16 289.27 225.77
  A 0.63 0.63 0.0 0 0 290.40 225.85
  Q 294.30 219.15 301.91 216.64
  Q 302.86 216.33 302.12 217.00
  C 300.97 218.05 299.63 218.74 298.57 219.92
  Q 295.93 222.84 294.76 226.28
  Q 294.30 227.63 295.33 226.65
  Q 305.65 216.81 319.02 220.99
  Q 320.31 221.39 318.95 221.42
  Q 308.81 221.60 299.73 228.00
  Q 298.48 228.88 299.94 228.40
  C 308.91 225.43 317.70 226.12 324.20 233.05
  Q 324.96 233.86 323.90 233.54
  Q 322.22 233.05 320.60 232.31
  Q 318.86 231.52 316.77 231.49
  Q 308.81 231.37 303.65 232.90
  Q 300.14 233.94 303.80 233.96
  Q 314.81 234.03 321.13 244.30
  Q 323.77 248.60 324.88 255.99
  A 0.49 0.48 -32.5 0 1 324.80 256.34
  Q 324.65 256.55 324.81 256.74
  Q 325.78 257.87 324.48 257.15
  Q 324.39 257.10 324.31 257.06
  Q 324.01 256.88 323.86 256.58
  Q 321.24 251.15 316.93 246.65
  Q 316.52 246.22 316.39 245.64
  Q 316.16 244.67 315.13 244.54
  A 1.70 1.70 0.0 0 1 314.22 244.12
  Q 310.25 240.42 305.28 239.55
  Q 303.85 239.30 304.96 240.24
  Q 315.40 249.04 314.17 264.56
  Q 313.91 267.90 313.04 264.66
  Q 311.71 259.63 309.68 254.61
  Q 308.70 252.21 307.27 250.30
  Q 305.53 247.98 303.81 245.61
  Q 303.03 244.53 301.84 243.71
  Q 300.50 242.77 299.26 241.77
  Q 298.93 241.50 298.51 241.56
  Q 297.95 241.64 298.31 242.07
  Q 307.17 252.71 303.94 265.90
  Q 303.18 269.01 302.59 265.87
  Q 302.26 264.15 302.28 262.30
  C 302.31 260.25 301.09 258.48 300.63 256.52
  C 300.17 254.54 298.59 253.24 298.73 251.12
  Q 298.75 250.78 298.42 250.69
  Q 297.19 250.37 296.75 249.05
  A 0.81 0.80 -25.1 0 0 295.56 248.62
  Q 292.87 250.29 290.34 248.27
  A 0.75 0.75 0.0 0 0 289.16 248.61
  Q 280.80 272.33 278.87 298.51
  Q 278.83 299.06 279.34 299.24
  Q 280.78 299.74 282.21 299.53
  C 284.65 299.18 289.13 301.75 288.44 304.64
  C 287.71 307.64 284.32 307.87 281.80 308.00
  Q 281.15 308.03 280.78 308.57
  L 280.59 308.85
  Q 280.28 309.31 279.73 309.25
  Q 279.19 309.20 278.69 309.41
  Q 278.19 309.62 278.20 310.17
  L 278.52 331.01
  A 0.53 0.52 -87.5 0 0 278.98 331.52
  L 299.81 333.70
  A 0.32 0.32 0.0 0 0 300.16 333.39
  Q 300.38 326.40 301.37 320.74
  Q 301.46 320.25 301.24 319.80
  C 299.47 316.24 302.77 312.29 303.50 308.89
  Q 304.11 306.03 306.25 303.13
  Q 306.56 302.70 307.08 302.59
  Q 309.23 302.13 311.08 302.64
  A 1.92 1.92 0.0 0 1 312.47 304.81
  Q 312.28 305.92 313.12 306.60
  Q 313.69 307.06 313.45 307.75
  L 312.69 310.00
  Q 312.53 310.49 312.06 310.70
  Q 310.22 311.52 310.79 313.57
  C 312.18 318.56 312.37 323.07 311.79 328.09
  C 311.45 330.94 313.25 333.08 313.88 335.78
  Q 314.02 336.38 314.62 336.51
  Q 325.31 338.93 333.98 342.01
  Q 334.47 342.19 334.92 341.92
  Q 337.44 340.46 339.35 338.60
  C 347.57 330.63 356.27 322.46 362.65 312.41
  C 363.56 310.99 365.44 309.68 366.57 307.80
  Q 369.41 303.05 372.02 298.85
  Q 374.32 295.14 375.89 291.16
  Q 377.41 287.28 379.07 283.27
  Q 384.69 269.64 386.18 260.17
  C 386.92 255.39 387.93 250.72 388.52 245.98
  Q 388.89 242.95 390.38 240.24
  Q 391.29 238.58 391.34 240.48
  Q 391.48 246.87 389.95 253.55
  C 389.65 254.85 390.29 255.65 390.02 256.90
  C 386.36 273.46 380.68 290.96 371.65 304.86
  Q 369.32 308.45 367.38 312.14
  C 366.07 314.64 363.93 315.91 362.66 318.31
  Q 361.88 319.77 360.78 321.09
  Q 352.34 331.10 344.24 337.73
  Q 343.66 338.20 343.12 338.68
  Q 340.75 340.79 338.29 342.87
  A 0.57 0.56 35.1 0 0 338.46 343.83
  L 339.47 344.22
  Q 340.42 344.59 339.40 344.60
  Q 338.43 344.60 337.44 344.28
  Q 336.96 344.12 336.51 344.37
  Q 333.55 346.03 330.73 347.96
  Q 329.55 348.77 328.16 349.11
  C 326.69 349.47 326.19 350.77 324.91 351.53
  Q 321.54 353.56 318.10 355.66
  Q 317.31 356.14 317.71 356.98
  A 0.95 0.95 0.0 0 1 317.03 358.32
  C 314.19 358.85 311.52 358.85 308.84 360.09
  Q 302.70 362.94 295.88 364.90
  C 292.94 365.74 290.43 367.47 287.30 367.83
  Q 283.58 368.25 280.26 369.20
  C 278.28 369.77 276.35 369.83 274.36 370.26
  C 272.35 370.70 270.49 370.18 268.44 370.90
  Q 266.84 371.46 265.11 371.55
  C 250.53 372.34 235.62 371.49 222.03 367.58
  C 219.73 366.91 217.81 365.20 215.45 365.28
  Q 210.02 365.46 205.50 363.58
  C 195.91 359.61 185.25 354.43 176.55 347.87
  Q 172.60 344.88 168.79 342.27
  C 165.17 339.80 162.26 336.62 158.92 333.86
  Q 154.79 330.44 151.08 325.81
  Q 145.91 319.34 145.79 319.21
  C 141.92 314.89 139.40 310.11 136.24 305.69
  Q 132.67 300.70 130.01 294.76
  Q 127.99 290.25 125.70 285.67
  C 124.12 282.49 121.39 277.16 121.30 273.50
  C 121.26 272.04 120.09 271.01 119.97 269.47
  C 119.73 266.31 119.69 263.19 119.03 260.05
  Q 118.58 257.91 118.37 255.59
  Q 118.10 252.65 117.49 249.47
  Q 116.95 246.63 116.86 243.41
  Q 116.40 227.52 117.25 215.57
  Q 117.51 211.94 118.89 208.02
  C 119.98 204.94 118.96 201.65 119.75 199.00
  Q 125.50 179.63 135.99 162.51
  Q 138.86 157.84 144.18 151.01
  Q 148.52 145.43 152.81 139.81
  Q 153.11 139.42 154.78 138.91
  Z
  M 210.38 290.78
  Q 209.02 291.54 209.45 292.99
  Q 209.62 293.52 210.18 293.58
  Q 210.53 293.61 210.81 293.42
  Q 211.30 293.09 211.12 292.54
  Q 210.95 292.00 210.98 291.44
  Q 210.99 291.01 211.33 290.72
  Q 211.85 290.28 211.50 289.63
  A 0.36 0.35 -35.2 0 0 210.95 289.54
  Q 210.73 289.74 210.76 290.05
  Q 210.81 290.54 210.38 290.78
  Z
  M 268.27 318.24
  A 0.33 0.33 0.0 0 0 267.76 317.92
  L 262.17 321.63
  A 0.33 0.33 0.0 0 0 262.02 321.93
  L 262.69 330.71
  A 0.33 0.33 0.0 0 0 263.02 331.02
  L 266.45 330.98
  A 0.33 0.33 0.0 0 0 266.77 330.69
  L 268.27 318.24
  Z
  M 246.03 327.46
  Q 246.31 328.07 246.36 327.40
  L 246.69 322.99
  Q 246.76 322.07 246.22 322.82
  Q 244.78 324.83 246.03 327.46
  Z
  M 235.05 325.90
  Q 234.82 325.53 234.42 325.42
  Q 233.91 325.28 233.59 325.70
  C 232.35 327.30 230.70 328.57 228.57 328.19
  Q 225.05 327.57 221.95 327.66
  Q 219.14 327.74 219.06 330.55
  Q 219.04 330.97 219.21 331.37
  Q 220.21 333.91 222.92 333.60
  L 236.29 332.08
  Q 236.93 332.01 237.12 331.40
  L 238.71 326.27
  Q 238.91 325.60 238.32 325.97
  Q 236.95 326.81 235.52 326.28
  A 0.94 0.93 -6.0 0 1 235.05 325.90
  Z
  M 200.93 326.25
  L 201.13 333.29
  A 0.17 0.17 0.0 0 0 201.31 333.46
  L 201.34 333.46
  A 3.54 1.36 88.3 0 0 202.59 329.88
  L 202.59 329.58
  A 3.54 1.36 88.3 0 0 201.12 326.08
  L 201.09 326.08
  A 0.17 0.17 0.0 0 0 200.93 326.25
  Z
  M 209.27 335.33
  A 0.55 0.55 0.0 0 0 209.95 335.98
  L 213.98 334.93
  A 0.55 0.55 0.0 0 0 214.38 334.49
  L 215.09 330.46
  A 0.55 0.55 0.0 0 0 214.56 329.81
  L 210.91 329.70
  A 0.55 0.55 0.0 0 0 210.36 330.14
  L 209.27 335.33
  Z
  M 242.98 331.11
  Q 242.70 329.42 241.37 330.83
  A 0.60 0.60 0.0 0 0 241.48 331.75
  Q 242.01 332.09 242.66 331.75
  A 0.61 0.60 72.1 0 0 242.98 331.11
  Z
  M 197.51 332.74
  Q 196.86 335.77 196.72 338.59
  Q 196.70 339.12 197.22 339.05
  L 197.75 338.98
  Q 198.47 338.89 198.30 338.18
  Q 197.71 335.77 198.24 333.09
  Q 198.30 332.77 197.98 332.73
  L 197.59 332.68
  Q 197.52 332.67 197.51 332.74
  Z
  M 215.22 347.37
  C 216.26 345.33 217.10 342.87 217.85 340.64
  Q 218.27 339.41 217.03 339.82
  L 216.61 339.95
  Q 215.63 340.28 215.36 341.27
  Q 214.52 344.36 214.23 347.07
  Q 213.93 349.87 215.22 347.37
  Z
  M 211.37 349.49
  Q 212.67 345.32 213.08 340.90
  A 0.49 0.49 0.0 0 0 212.55 340.37
  L 209.76 340.61
  Q 209.26 340.66 209.20 341.16
  C 208.82 344.13 208.69 350.09 210.58 352.72
  Q 211.09 353.42 211.07 352.55
  C 211.05 351.56 211.07 350.44 211.37 349.49
  Z
  M 332.25 343.27
  L 316.67 341.11
  Q 316.00 341.02 316.08 341.69
  Q 316.58 345.89 314.34 351.97
  Q 313.89 353.16 312.88 353.81
  Q 312.31 354.16 312.68 354.72
  L 312.88 355.03
  Q 313.31 355.68 314.02 355.35
  Q 317.47 353.76 320.27 351.54
  Q 322.65 349.65 325.43 348.36
  Q 328.85 346.77 332.41 343.84
  Q 332.99 343.37 332.25 343.27
  Z
  M 198.97 341.84
  L 196.87 342.20
  A 0.77 0.77 0.0 0 0 196.24 343.09
  L 196.36 343.77
  A 7.12 1.74 80.2 0 0 199.28 350.49
  L 199.48 350.46
  A 7.12 1.74 80.2 0 0 199.98 343.15
  L 199.86 342.47
  A 0.77 0.77 0.0 0 0 198.97 341.84
  Z
  M 308.6392 356.6306
  A 2.17 1.12 1.6 0 0 306.5013 355.4504
  A 2.17 1.12 1.6 0 0 304.3008 356.5094
  A 2.17 1.12 1.6 0 0 306.4387 357.6896
  A 2.17 1.12 1.6 0 0 308.6392 356.6306
  Z"
/>
<path fill="#ff914e" d="
  M 349.61 134.52
  A 0.22 0.22 0.0 0 1 349.92 134.49
  L 352.80 136.95
  A 1.23 0.67 40.4 0 1 353.31 138.26
  L 353.31 138.26
  A 1.23 0.67 40.4 0 1 351.93 137.97
  L 349.05 135.51
  A 0.22 0.22 0.0 0 1 349.02 135.20
  L 349.61 134.52
  Z"
/>
<path fill="#ff914e" d="
  M 358.35 143.60
  Q 357.96 142.65 356.85 142.24
  A 0.61 0.61 0.0 0 1 356.47 141.61
  L 356.53 141.06
  A 0.37 0.37 0.0 0 1 357.12 140.81
  L 360.27 143.24
  A 0.68 0.67 -62.4 0 1 360.50 143.99
  Q 360.37 144.37 360.11 144.71
  Q 359.75 145.18 360.06 145.69
  Q 360.73 146.80 361.52 147.56
  Q 362.10 148.12 361.31 147.95
  Q 360.80 147.84 360.30 147.76
  Q 359.96 147.71 359.69 147.46
  Q 358.06 145.99 357.55 143.92
  Q 357.43 143.41 357.94 143.53
  Q 358.10 143.56 358.20 143.69
  Q 358.59 144.16 358.35 143.60
  Z"
/>
<path fill="#ff914e" d="
  M 367.25 155.23
  Q 366.58 154.07 365.73 153.02
  Q 365.61 152.88 365.71 152.74
  Q 365.74 152.70 365.79 152.68
  Q 365.86 152.62 365.94 152.68
  Q 367.16 153.57 367.25 155.23
  Z"
/>
<path fill="#ff914e" d="
  M 367.25 155.23
  Q 370.35 159.98 371.88 162.63
  Q 374.61 167.36 370.84 163.40
  Q 368.20 160.62 367.25 155.23
  Z"
/>
<path fill="#ff914e" d="
  M 378.66 175.40
  A 0.67 0.67 0.0 0 1 379.58 174.45
  Q 380.73 175.29 380.29 176.47
  Q 380.04 177.16 379.59 176.58
  L 378.66 175.40
  Z"
/>
<ellipse fill="#ff914e" cx="0.00" cy="0.00" transform="translate(381.62,181.34) rotate(60.3)" rx="1.70" ry="0.54"/>
<path fill="#ff914e" d="
  M 387.63 201.27
  Q 387.81 201.34 387.99 201.26
  Q 388.05 201.23 388.07 201.30
  Q 388.60 203.06 388.37 204.52
  A 0.35 0.35 0.0 0 1 387.80 204.74
  L 387.44 204.44
  A 0.78 0.78 0.0 0 1 387.19 203.64
  Q 387.69 201.90 386.69 200.71
  Q 386.32 200.27 386.49 199.72
  Q 386.87 198.56 385.94 197.91
  Q 385.49 197.60 385.64 197.07
  Q 386.00 195.72 384.92 194.87
  Q 384.52 194.56 384.47 194.06
  Q 384.42 193.44 384.04 192.93
  Q 383.56 192.27 384.25 192.69
  Q 385.19 193.24 385.77 194.37
  C 386.50 195.77 385.63 197.12 386.86 198.05
  Q 387.34 198.41 387.28 199.02
  Q 387.18 200.00 387.40 201.02
  A 0.34 0.33 3.2 0 0 387.63 201.27
  Z"
/>
<rect fill="#ff914e" x="-13.32" y="-0.30" transform="translate(290.48,319.21) rotate(44.5)" width="26.64" height="0.60" rx="0.28"/>
<path fill="#ff914e" d="
  M 317.31 329.73
  A 0.89 0.89 0.0 0 0 315.66 329.63
  Q 315.08 330.85 313.93 331.54
  Q 313.08 332.04 313.64 331.23
  Q 314.91 329.42 316.72 327.94
  Q 317.25 327.50 317.56 328.11
  Q 318.41 329.71 318.65 331.21
  Q 318.68 331.41 318.48 331.47
  L 318.18 331.55
  Q 317.93 331.61 317.85 331.37
  L 317.31 329.73
  Z"
/>
<path fill="#ff914e" d="
  M 227.29 375.69
  L 227.67 392.42
  A 0.99 0.99 0.0 0 1 226.59 393.43
  L 225.19 393.31
  A 0.99 0.99 0.0 0 1 224.28 392.32
  L 224.35 375.51
  A 0.99 0.99 0.0 0 1 225.55 374.54
  L 226.50 374.75
  A 0.99 0.99 0.0 0 1 227.29 375.69
  Z"
/>
<path fill="#ff914e" d="
  M 268.94 383.02
  L 268.30 383.97
  A 1.26 1.25 11.1 0 1 267.49 384.51
  Q 265.30 384.93 264.76 382.81
  Q 264.61 382.22 264.15 382.62
  Q 264.01 382.74 264.02 382.92
  Q 264.32 387.78 264.18 392.56
  Q 264.15 393.50 263.22 393.39
  L 261.71 393.22
  Q 260.80 393.12 260.80 392.21
  L 260.84 375.75
  Q 260.84 375.12 261.42 374.88
  C 262.80 374.32 264.26 374.78 264.79 376.26
  Q 265.67 378.79 266.70 381.13
  Q 266.92 381.64 267.14 381.12
  L 269.45 375.52
  Q 269.64 375.07 270.08 374.85
  Q 271.14 374.32 272.20 374.96
  Q 272.73 375.28 272.74 375.90
  L 273.07 392.63
  A 0.76 0.76 0.0 0 1 272.24 393.40
  L 270.50 393.23
  Q 269.61 393.14 269.61 392.25
  L 269.65 383.23
  Q 269.65 381.93 268.94 383.02
  Z"
/>
<path fill="#ff914e" d="
  M 193.27 390.22
  L 198.59 390.17
  A 0.59 0.59 0.0 0 1 199.18 390.79
  L 199.11 392.31
  A 0.59 0.59 0.0 0 1 198.53 392.88
  L 189.87 392.95
  A 0.59 0.59 0.0 0 1 189.27 392.36
  L 189.28 375.56
  A 0.59 0.59 0.0 0 1 189.88 374.97
  L 198.34 375.06
  A 0.59 0.59 0.0 0 1 198.92 375.76
  L 198.63 377.37
  A 0.59 0.59 0.0 0 1 198.04 377.85
  L 193.05 377.79
  A 0.59 0.59 0.0 0 0 192.45 378.41
  L 192.61 381.66
  A 0.59 0.59 0.0 0 0 193.20 382.22
  L 197.61 382.21
  A 0.59 0.59 0.0 0 1 198.21 382.81
  L 198.19 384.28
  A 0.59 0.59 0.0 0 1 197.60 384.87
  L 193.28 384.87
  A 0.59 0.59 0.0 0 0 192.69 385.46
  L 192.67 389.62
  A 0.59 0.59 0.0 0 0 193.27 390.22
  Z"
/>
<path fill="#ff914e" d="
  M 206.37 383.72
  L 207.43 381.39
  Q 207.76 380.67 208.55 380.74
  L 209.83 380.85
  Q 210.67 380.93 210.31 381.70
  L 208.22 386.23
  Q 207.98 386.75 208.27 387.24
  L 211.32 392.47
  Q 211.93 393.51 210.73 393.40
  L 209.19 393.26
  Q 208.21 393.16 207.72 392.32
  L 206.50 390.24
  Q 206.12 389.59 205.74 390.25
  L 204.24 392.89
  Q 203.95 393.40 203.36 393.37
  L 201.23 393.24
  A 0.43 0.43 0.0 0 1 200.88 392.59
  L 204.03 387.22
  Q 204.32 386.73 204.04 386.23
  L 201.33 381.49
  Q 200.94 380.81 201.72 380.75
  Q 202.76 380.67 203.80 380.97
  Q 204.34 381.13 204.59 381.63
  L 205.65 383.73
  Q 206.03 384.47 206.37 383.72
  Z"
/>
<path fill="#ff914e" d="
  M 216.76 381.81
  C 219.05 380.47 221.64 380.15 222.30 383.48
  C 223.07 387.33 223.67 393.83 217.53 393.33
  Q 216.53 393.25 216.53 394.25
  L 216.53 398.02
  Q 216.53 398.82 215.73 398.78
  L 213.95 398.70
  A 0.75 0.74 -88.4 0 1 213.25 397.95
  L 213.31 381.49
  Q 213.32 380.93 213.86 380.79
  Q 215.23 380.44 215.98 381.62
  Q 216.28 382.09 216.76 381.81
  Z
  M 219.28 383.68
  A 0.73 0.73 0.0 0 0 218.22 383.02
  L 216.92 383.66
  A 0.73 0.73 0.0 0 0 216.52 384.31
  L 216.51 390.48
  A 0.73 0.73 0.0 0 0 217.51 391.16
  L 218.69 390.69
  A 0.73 0.73 0.0 0 0 219.15 390.03
  L 219.28 383.68
  Z"
/>
<path fill="#ff914e" d="
  M 238.9023 389.3754
  A 3.91 3.91 0.0 0 1 235.0128 393.3058
  L 233.4328 393.3141
  A 3.91 3.91 0.0 0 1 229.5024 389.4246
  L 229.4777 384.7046
  A 3.91 3.91 0.0 0 1 233.3672 380.7742
  L 234.9472 380.7659
  A 3.91 3.91 0.0 0 1 238.8776 384.6554
  L 238.9023 389.3754
  Z
  M 235.4696 384.2448
  A 1.31 1.31 0.0 0 0 234.1642 382.9303
  L 234.0242 382.9298
  A 1.31 1.31 0.0 0 0 232.7096 384.2352
  L 232.6904 389.7552
  A 1.31 1.31 0.0 0 0 233.9958 391.0697
  L 234.1358 391.0702
  A 1.31 1.31 0.0 0 0 235.4504 389.7648
  L 235.4696 384.2448
  Z"
/>
<path fill="#ff914e" d="
  M 244.52 381.72
  Q 245.94 380.49 247.66 381.01
  Q 248.81 381.36 248.42 382.50
  L 248.24 383.03
  Q 247.84 384.20 246.73 383.66
  Q 245.75 383.19 244.59 383.89
  A 0.97 0.95 74.4 0 0 244.14 384.71
  L 244.18 392.82
  A 0.57 0.57 0.0 0 1 243.56 393.39
  L 241.76 393.24
  A 0.72 0.72 0.0 0 1 241.10 392.51
  L 241.11 381.50
  A 0.77 0.76 -2.9 0 1 241.80 380.74
  Q 242.98 380.62 243.60 381.59
  Q 243.98 382.18 244.52 381.72
  Z"
/>
<path fill="#ff914e" d="
  M 253.35 387.77
  Q 252.97 387.78 253.02 388.16
  L 253.34 390.53
  A 0.67 0.66 84.5 0 0 254.04 391.11
  L 258.55 390.86
  Q 259.01 390.83 258.99 391.30
  L 258.96 392.24
  Q 258.94 392.91 258.28 393.04
  Q 254.83 393.74 252.28 393.05
  C 249.15 392.20 249.58 387.15 249.78 384.64
  Q 250.08 380.91 253.68 380.75
  C 258.01 380.56 258.78 383.12 258.76 386.81
  A 0.82 0.81 -0.7 0 1 257.96 387.62
  L 253.35 387.77
  Z
  M 255.4860 383.7107
  A 0.82 0.82 0.0 0 0 254.6095 382.9514
  L 253.7118 383.0157
  A 0.82 0.82 0.0 0 0 252.9525 383.8923
  L 253.0340 385.0293
  A 0.82 0.82 0.0 0 0 253.9105 385.7886
  L 254.8082 385.7243
  A 0.82 0.82 0.0 0 0 255.5675 384.8477
  L 255.4860 383.7107
  Z"
/>
<path fill="#ff914e" d="
  M 284.4224 389.4054
  A 3.89 3.89 0.0 0 1 280.5528 393.3157
  L 278.9328 393.3242
  A 3.89 3.89 0.0 0 1 275.0225 389.4546
  L 274.9976 384.6946
  A 3.89 3.89 0.0 0 1 278.8672 380.7843
  L 280.4872 380.7758
  A 3.89 3.89 0.0 0 1 284.3975 384.6454
  L 284.4224 389.4054
  Z
  M 280.9990 384.2798
  A 1.32 1.32 0.0 0 0 279.6883 382.9506
  L 279.5483 382.9496
  A 1.32 1.32 0.0 0 0 278.2191 384.2604
  L 278.1810 389.7202
  A 1.32 1.32 0.0 0 0 279.4917 391.0494
  L 279.6317 391.0504
  A 1.32 1.32 0.0 0 0 280.9609 389.7396
  L 280.9990 384.2798
  Z"
/>
<path fill="#ff914e" d="
  M 288.87 381.60
  A 0.64 0.64 0.0 0 0 289.85 381.75
  Q 291.72 380.06 293.56 381.40
  A 0.59 0.58 26.0 0 1 293.78 382.03
  L 293.39 383.40
  A 0.69 0.68 20.5 0 1 292.44 383.83
  Q 291.24 383.28 289.98 383.72
  Q 289.42 383.92 289.42 384.51
  L 289.47 392.75
  A 0.66 0.65 2.4 0 1 288.75 393.41
  L 287.00 393.23
  Q 286.35 393.17 286.35 392.51
  L 286.35 381.46
  A 0.68 0.68 0.0 0 1 286.84 380.81
  Q 288.18 380.44 288.87 381.60
  Z"
/>
<path fill="#ff914e" d="
  M 304.6677 389.3847
  A 3.92 3.92 0.0 0 1 300.7273 393.2841
  L 299.1273 393.2757
  A 3.92 3.92 0.0 0 1 295.2279 389.3353
  L 295.2523 384.6753
  A 3.92 3.92 0.0 0 1 299.1927 380.7759
  L 300.7927 380.7843
  A 3.92 3.92 0.0 0 1 304.6921 384.7247
  L 304.6677 389.3847
  Z
  M 301.2637 384.2471
  A 1.31 1.31 0.0 0 0 299.9698 382.9212
  L 299.8299 382.9194
  A 1.31 1.31 0.0 0 0 298.5039 384.2133
  L 298.4363 389.7529
  A 1.31 1.31 0.0 0 0 299.7302 391.0788
  L 299.8701 391.0806
  A 1.31 1.31 0.0 0 0 301.1961 389.7867
  L 301.2637 384.2471
  Z"
/>
<path fill="#ff914e" d="
  M 309.87 383.90
  Q 309.36 387.46 310.06 390.37
  A 0.98 0.98 0.0 0 0 311.09 391.11
  L 314.03 390.86
  Q 314.76 390.80 314.75 391.53
  L 314.74 392.00
  Q 314.73 392.92 313.83 393.08
  C 310.05 393.74 306.77 393.50 306.42 388.84
  Q 306.21 385.95 306.73 383.51
  C 307.43 380.26 311.73 380.37 314.07 381.37
  Q 314.73 381.66 314.52 382.34
  L 314.21 383.36
  Q 313.99 384.09 313.33 383.70
  Q 312.08 382.96 310.71 383.10
  A 0.94 0.93 1.1 0 0 309.87 383.90
  Z"
/>
<path fill="#ff914e" d="
  M 320.48 383.14
  A 1.01 1.01 0.0 0 0 319.62 383.98
  Q 319.14 387.07 319.60 389.80
  Q 319.85 391.31 321.37 391.13
  L 323.61 390.86
  Q 324.46 390.76 324.48 391.61
  L 324.49 391.97
  Q 324.52 392.80 323.71 392.99
  C 315.88 394.86 315.29 389.04 316.44 383.74
  C 317.17 380.34 321.13 380.32 323.68 381.28
  A 0.96 0.95 -70.9 0 1 324.25 382.46
  L 324.01 383.26
  Q 323.78 384.00 323.09 383.64
  Q 321.82 382.96 320.48 383.14
  Z"
/>
<path fill="#ff914e" d="
  M 335.6739 389.3531
  A 3.96 3.96 0.0 0 1 331.6863 393.2854
  L 330.1064 393.2743
  A 3.96 3.96 0.0 0 1 326.1741 389.2868
  L 326.2061 384.7069
  A 3.96 3.96 0.0 0 1 330.1937 380.7746
  L 331.7736 380.7857
  A 3.96 3.96 0.0 0 1 335.7059 384.7732
  L 335.6739 389.3531
  Z
  M 332.2292 384.2242
  A 1.28 1.28 0.0 0 0 330.9627 382.9309
  L 330.8427 382.9296
  A 1.28 1.28 0.0 0 0 329.5494 384.1961
  L 329.4908 389.7958
  A 1.28 1.28 0.0 0 0 330.7573 391.0891
  L 330.8773 391.0904
  A 1.28 1.28 0.0 0 0 332.1706 389.8239
  L 332.2292 384.2242
  Z"
/>
</svg>
